<svg width="100" height="100" viewBox="0 0 100 100" fill="none" xmlns="http://www.w3.org/2000/svg">
<circle cx="50" cy="50" r="50" fill="#2F65EC"/>
<path d="M76.5201 55.749L76.4456 55.8273C76.4108 55.8633 76.3755 55.8991 76.3399 55.9346L55.9069 76.3347C52.3475 79.8884 46.5765 79.8884 43.0171 76.3347L37.3745 70.7015C36.9744 70.3036 36.9736 69.6567 37.3718 69.2571C37.489 69.1396 37.633 69.0523 37.7914 69.0028C43.8394 67.1359 48.7536 64.9808 52.5339 62.5377C61.5368 56.7192 69.5322 54.4563 76.5201 55.749ZM72.2364 38.9677C79.7804 41.3449 78.8999 46.8946 79 49.0825C70.7381 44.7503 60.799 46.3382 49.1823 53.8459C40.5239 59.4417 33.2711 61.7488 27.4239 60.7672C21.5768 59.7856 20.2615 52.6447 20 50.7471C26.425 53.9957 35.0353 52.1312 45.8308 45.1541C55.8905 38.6527 64.6924 36.5904 72.2364 38.9677ZM55.9069 22.6653L61.2088 27.9579C61.6082 28.3564 61.6088 29.0033 61.2103 29.4027C61.0682 29.5452 60.8871 29.6425 60.6899 29.6823C53.0145 31.2285 46.8762 33.4886 42.2749 36.4624C34.3901 41.5582 27.6709 43.9268 22.1174 43.5681L22.118 43.5666L43.0171 22.6653C46.5765 19.1116 52.3475 19.1116 55.9069 22.6653Z" fill="url(#paint0_linear_1724_58010)"/>
<defs>
<linearGradient id="paint0_linear_1724_58010" x1="49.5" y1="20" x2="48.9216" y2="119.49" gradientUnits="userSpaceOnUse">
<stop stop-color="white"/>
<stop offset="1" stop-color="white"/>
</linearGradient>
</defs>
</svg>
